# xmcd CD database file
#
# Track frame offsets:
#	150
#	22882
#	38453
#	49745
#	64664
#	78940
#	101027
#	119355
#	137163
#	157362
#	177639
#	196983
#	211355
#	227712
#	245548
#	268276
#
# Disc length: 3765 seconds
#
# Revision: 0
# Processed by: cddbd v1.5.2PL0 Copyright (c) Steve Scherf et al.
# Submitted via: CDex 1.51
#
DISCID=e50eb310
DTITLE=Buena Vista Social Club - Rythms del Mundo
DYEAR=2008
DGENRE=Salsa
TTITLE0=coldplay-_clocks
TTITLE1=jack_johnson-_better_together
TTITLE2=arctic_monkeys-_dancing_shoes
TTITLE3=dido_and_faithless-_one_step_too_far
TTITLE4=brahim_ferrer-_as_time_goes_by
TTITLE5=u2_and_coco_freeman-_i_still_havent_found_what_im_looking_for
TTITLE6=maroon_5-_she_will_be_loved
TTITLE7=kaiser_chiefs-_modern_way
TTITLE8=omara_portuondo-_killing_me_softly
TTITLE9=vania_borges_feat._quincy_jones_-_ai_no_corrida
TTITLE10=sting-_fragilidad
TTITLE11=vania_borges-_dont_know_why
TTITLE12=aquila_rose_and_idania_valdez-_hotel_buena_vista
TTITLE13=coco_freeman_feat._franz_ferdinand_-_the_dark_of_the_matinee
TTITLE14=el_lele_de_los_van_van_feat._radiohead_(samples)_-_high_and_dry
TTITLE15=ibrahim_ferrer_and_omara_portuondo_-_casablanca_(as_time_goes_by)
EXTD=YEAR: 2008
EXTT0=
EXTT1=
EXTT2=
EXTT3=
EXTT4=
EXTT5=
EXTT6=
EXTT7=
EXTT8=
EXTT9=
EXTT10=
EXTT11=
EXTT12=
EXTT13=
EXTT14=
EXTT15=
PLAYORDER=
